<?xml version="1.0" encoding="UTF-8" standalone="no"?>
<!DOCTYPE svg PUBLIC "-//W3C//DTD SVG 20010904//EN"
              "http://www.w3.org/TR/2001/REC-SVG-20010904/DTD/svg10.dtd">

<svg xmlns="http://www.w3.org/2000/svg"
     width="7in" height="7in"
     viewBox="0 0 630 630">
  <path id="Ruta importada #2"
        fill="#EEE"
        d="M 260.19,572.75
           C 116.68,572.75 0.00,456.86 0.00,314.50
             0.00,172.14 116.68,56.25 260.19,56.25
             352.67,56.25 439.11,105.68 485.48,185.25
             485.48,185.25 372.83,249.94 372.83,249.94
             349.65,210.09 306.43,185.38 260.19,185.38
             188.50,185.38 130.03,243.25 130.03,314.50
             130.03,385.75 188.50,443.62 260.19,443.62
             306.43,443.62 349.65,418.91 372.83,379.06
             372.83,379.06 485.48,443.75 485.48,443.75
             439.11,523.32 352.67,572.75 260.19,572.75 Z
           M 520.38,300.12
           C 520.38,300.12 491.40,300.12 491.40,300.12
             491.40,300.12 491.40,271.50 491.40,271.50
             491.40,271.50 462.55,271.50 462.55,271.50
             462.55,271.50 462.55,300.12 462.55,300.12
             462.55,300.12 433.57,300.12 433.57,300.12
             433.57,300.12 433.57,328.88 433.57,328.88
             433.57,328.88 462.55,328.88 462.55,328.88
             462.55,328.88 462.55,357.50 462.55,357.50
             462.55,357.50 491.40,357.50 491.40,357.50
             491.40,357.50 491.40,328.88 491.40,328.88
             491.40,328.88 520.38,328.88 520.38,328.88
             520.38,328.88 520.38,300.12 520.38,300.12 Z
           M 628.74,300.12
           C 628.74,300.12 599.89,300.12 599.89,300.12
             599.89,300.12 599.89,271.50 599.89,271.50
             599.89,271.50 570.91,271.50 570.91,271.50
             570.91,271.50 570.91,300.12 570.91,300.12
             570.91,300.12 542.05,300.12 542.05,300.12
             542.05,300.12 542.05,328.88 542.05,328.88
             542.05,328.88 570.91,328.88 570.91,328.88
             570.91,328.88 570.91,357.50 570.91,357.50
             570.91,357.50 599.89,357.50 599.89,357.50
             599.89,357.50 599.89,328.88 599.89,328.88
             599.89,328.88 628.74,328.88 628.74,328.88
             628.74,328.88 628.74,300.12 628.74,300.12 Z" />
</svg>
