<?xml version="1.0" encoding="UTF-8" standalone="no"?>
<!DOCTYPE svg PUBLIC "-//W3C//DTD SVG 20010904//EN"
              "http://www.w3.org/TR/2001/REC-SVG-20010904/DTD/svg10.dtd">

<svg xmlns="http://www.w3.org/2000/svg"
     width="7in" height="7in"
     viewBox="0 0 630 630">
  <path id="Ruta importada #2"
        fill="#EEE"
        d="M 610.58,472.50
           C 610.58,472.50 473.31,393.67 473.31,393.67
             445.07,442.23 392.40,472.34 336.06,472.34
             248.70,472.34 177.45,401.82 177.45,315.00
             177.45,228.18 248.70,157.66 336.06,157.66
             392.40,157.66 445.07,187.77 473.31,236.33
             473.31,236.33 610.58,157.50 610.58,157.50
             554.08,60.54 448.75,0.30 336.06,0.30
             161.18,0.30 19.00,141.52 19.00,315.00
             19.00,488.48 161.18,629.70 336.06,629.70
             448.75,629.70 554.08,569.46 610.58,472.50 Z" />
</svg>
