<?xml version="1.0" encoding="UTF-8" standalone="no"?>
<!DOCTYPE svg PUBLIC "-//W3C//DTD SVG 20010904//EN"
              "http://www.w3.org/TR/2001/REC-SVG-20010904/DTD/svg10.dtd">

<svg xmlns="http://www.w3.org/2000/svg"
     width="7in" height="7in"
     viewBox="0 0 630 630">
  <path id="polygon2989"
        fill="#CCC"
        d="M 91.00,123.81
           C 91.00,123.81 131.69,579.40 131.69,579.40
             131.69,579.40 314.23,630.00 314.23,630.00
             314.23,630.00 497.28,579.33 497.28,579.33
             497.28,579.33 538.00,123.81 538.00,123.81
             538.00,123.81 91.00,123.81 91.00,123.81 Z" />
  <path id="polygon2991"
        fill="#DDD"
        d="M 314.50,591.26
           C 314.50,591.26 314.50,161.06 314.50,161.06
             314.50,161.06 497.22,161.06 497.22,161.06
             497.22,161.06 462.42,550.33 462.42,550.33
             462.42,550.33 314.50,591.26 314.50,591.26 Z" />
  <path id="polygon2993"
        fill="#FAFAFA"
        d="M 314.50,330.04
           C 314.50,330.04 314.50,385.91 314.50,385.91
             314.50,385.91 189.28,385.91 189.28,385.91
             189.28,385.91 184.25,330.04 184.25,330.04
             184.25,330.04 314.50,330.04 314.50,330.04 Z
           M 314.50,272.82
           C 314.50,272.82 179.27,272.82 179.27,272.82
             179.27,272.82 174.18,216.94 174.18,216.94
             174.18,216.94 314.30,216.94 314.30,216.94
             314.30,216.94 314.50,216.94 314.50,216.94
             314.50,216.94 314.50,272.82 314.50,272.82 Z
           M 314.24,533.36
           C 314.24,533.36 199.61,501.58 199.61,501.58
             199.61,501.58 191.78,413.84 191.78,413.84
             191.78,413.84 217.66,413.84 217.66,413.84
             217.66,413.84 247.94,413.84 247.94,413.84
             247.94,413.84 251.93,458.41 251.93,458.41
             251.93,458.41 314.25,475.22 314.25,475.22
             314.25,475.22 314.50,475.15 314.50,475.15
             314.50,475.15 314.50,533.29 314.50,533.29
             314.50,533.29 314.24,533.36 314.24,533.36 Z" />
  <path id="path2999"
        fill="#FFF"
        d="M 196.20,84.90
           C 196.20,84.90 263.98,84.90 263.98,84.90
             263.98,84.90 263.98,56.60 263.98,56.60
             263.98,56.60 224.55,56.60 224.55,56.60
             224.55,56.60 224.55,28.30 224.55,28.30
             224.55,28.30 263.98,28.30 263.98,28.30
             263.98,28.30 263.98,0.00 263.98,0.00
             263.98,0.00 196.20,0.00 196.20,0.00
             196.20,0.00 196.20,84.90 196.20,84.90 Z
           M 277.53,55.37
           C 277.53,55.37 316.96,55.37 316.96,55.37
             316.96,55.37 316.96,60.29 316.96,60.29
             316.96,60.29 277.53,60.29 277.53,60.29
             277.53,60.29 277.53,86.13 277.53,86.13
             277.53,86.13 345.31,86.13 345.31,86.13
             345.31,86.13 345.31,29.53 345.31,29.53
             345.31,29.53 305.87,29.53 305.87,29.53
             305.87,29.53 305.87,24.61 305.87,24.61
             305.87,24.61 345.31,24.61 345.31,24.61
             345.31,24.61 345.31,0.00 345.31,0.00
             345.31,0.00 277.53,0.00 277.53,0.00
             277.53,0.00 277.53,55.37 277.53,55.37 Z
           M 358.87,55.37
           C 358.87,55.37 398.30,55.37 398.30,55.37
             398.30,55.37 398.30,60.29 398.30,60.29
             398.30,60.29 358.87,60.29 358.87,60.29
             358.87,60.29 358.87,86.13 358.87,86.13
             358.87,86.13 426.64,86.13 426.64,86.13
             426.64,86.13 426.64,29.53 426.64,29.53
             426.64,29.53 387.20,29.53 387.20,29.53
             387.20,29.53 387.20,24.61 387.20,24.61
             387.20,24.61 426.64,24.61 426.64,24.61
             426.64,24.61 426.64,0.00 426.64,0.00
             426.64,0.00 358.87,0.00 358.87,0.00
             358.87,0.00 358.87,55.37 358.87,55.37 Z
           M 314.30,385.91
           C 314.30,385.91 314.30,330.04 314.30,330.04
             314.30,330.04 388.06,330.04 388.06,330.04
             388.06,330.04 393.16,272.82 393.16,272.82
             393.16,272.82 314.30,272.82 314.30,272.82
             314.30,272.82 314.30,216.94 314.30,216.94
             314.30,216.94 454.49,216.94 454.49,216.94
             454.49,216.94 444.39,330.04 444.39,330.04
             444.39,330.04 443.02,345.04 443.02,345.04
             443.02,345.04 429.87,492.14 429.87,492.14
             429.87,492.14 429.03,501.58 429.03,501.58
             429.03,501.58 314.30,533.33 314.30,533.33
             314.30,533.33 314.30,475.19 314.30,475.19
             314.30,475.19 376.72,458.37 376.72,458.37
             376.72,458.37 383.21,385.91 383.21,385.91
             383.21,385.91 314.30,385.91 314.30,385.91 Z" />
</svg>
