<?xml version="1.0" encoding="UTF-8" standalone="no"?>
<!DOCTYPE svg PUBLIC "-//W3C//DTD SVG 20010904//EN"
              "http://www.w3.org/TR/2001/REC-SVG-20010904/DTD/svg10.dtd">

<svg xmlns="http://www.w3.org/2000/svg"
     width="7in" height="7in"
     viewBox="0 0 630 630">
  <path id="Ruta importada #3"
        fill="#CCC"
        d="M 314.63,630.00
           C 314.63,630.00 497.65,579.30 497.65,579.30
             497.65,579.30 538.26,123.79 538.26,123.79
             538.26,123.79 91.74,123.79 91.74,123.79
             91.74,123.79 132.35,579.55 132.35,579.55" />
  <path id="Ruta importada #2"
        fill="#DDD"
        d="M 462.69,550.02
           C 462.69,550.02 497.52,161.19 497.52,161.19
             497.52,161.19 315.00,161.19 315.00,161.19
             315.00,161.19 315.00,591.24 315.00,591.24" />
  <path id="Ruta importada #1"
        fill="#FAFAFA"
        d="M 189.95,385.75
           C 189.95,385.75 315.00,385.75 315.00,385.75
             315.00,385.75 315.00,330.01 315.00,330.01
             315.00,330.01 241.15,330.01 241.15,330.01
             241.15,330.01 235.98,272.79 235.98,272.79
             235.98,272.79 315.00,272.79 315.00,272.79
             315.00,272.79 315.00,216.93 315.00,216.93
             315.00,216.93 174.69,216.93 174.69,216.93M 200.29,501.54
           C 200.29,501.54 315.00,533.53 315.00,533.53
             315.00,533.53 315.00,475.21 315.00,475.21
             315.00,475.21 252.48,458.47 252.48,458.47
             252.48,458.47 248.54,413.81 248.54,413.81
             248.54,413.81 192.42,413.81 192.42,413.81" />
  <path id="Ruta importada #4"
        fill="#FFF"
        d="M 133.34,84.90
           C 133.34,84.90 161.89,84.90 161.89,84.90
             161.89,84.90 161.89,56.60 161.89,56.60
             161.89,56.60 187.74,56.60 187.74,56.60
             187.74,56.60 187.74,84.90 187.74,84.90
             187.74,84.90 216.05,84.90 216.05,84.90
             216.05,84.90 216.05,0.00 216.05,0.00
             216.05,0.00 187.74,0.00 187.74,0.00
             187.74,0.00 187.74,28.05 187.74,28.05
             187.74,28.05 161.65,28.05 161.65,28.05
             161.65,28.05 161.65,0.00 161.65,0.00
             161.65,0.00 133.34,0.00 133.34,0.00M 253.46,84.90
           C 253.46,84.90 281.77,84.90 281.77,84.90
             281.77,84.90 281.77,28.30 281.77,28.30
             281.77,28.30 306.88,28.30 306.88,28.30
             306.88,28.30 306.88,0.00 306.88,0.00
             306.88,0.00 228.48,0.00 228.48,0.00
             228.48,0.00 228.48,28.30 228.48,28.30
             228.48,28.30 253.46,28.30 253.46,28.30M 319.31,84.90
           C 319.31,84.90 347.12,84.90 347.12,84.90
             347.12,84.90 347.12,42.82 347.12,42.82
             347.12,42.82 366.94,73.34 366.94,73.34
             366.94,73.34 386.75,42.82 386.75,42.82
             386.75,42.82 386.75,84.90 386.75,84.90
             386.75,84.90 415.06,84.90 415.06,84.90
             415.06,84.90 415.06,0.00 415.06,0.00
             415.06,0.00 385.40,0.00 385.40,0.00
             385.40,0.00 367.18,29.90 367.18,29.90
             367.18,29.90 348.97,0.00 348.97,0.00
             348.97,0.00 319.31,0.00 319.31,0.00M 429.09,84.90
           C 429.09,84.90 497.52,84.90 497.52,84.90
             497.52,84.90 497.52,56.85 497.52,56.85
             497.52,56.85 457.40,56.85 457.40,56.85
             457.40,56.85 457.40,0.00 457.40,0.00
             457.40,0.00 429.09,0.00 429.09,0.00
           M 449.65,272.79
           C 449.65,272.79 314.75,272.79 314.75,272.79
             314.75,272.79 314.75,216.93 314.75,216.93
             314.75,216.93 454.82,216.93 454.82,216.93M 429.22,501.54
           C 429.22,501.54 314.75,533.29 314.75,533.29
             314.75,533.29 314.75,475.21 314.75,475.21
             314.75,475.21 377.15,458.47 377.15,458.47
             377.15,458.47 383.68,385.88 383.68,385.88
             383.68,385.88 314.75,385.88 314.75,385.88
             314.75,385.88 314.75,330.01 314.75,330.01
             314.75,330.01 444.60,330.01 444.60,330.01" />
</svg>
