<?xml version="1.0" encoding="UTF-8" standalone="no"?>
<!DOCTYPE svg PUBLIC "-//W3C//DTD SVG 20010904//EN"
              "http://www.w3.org/TR/2001/REC-SVG-20010904/DTD/svg10.dtd">

<svg xmlns="http://www.w3.org/2000/svg"
     width="7in" height="7in"
     viewBox="0 0 630 630">
  <path id="Ruta importada #1"
        fill="#EEE"
        d="M 0.00,0.00
           C 0.00,0.00 0.00,630.00 0.00,630.00
             0.00,630.00 630.00,630.00 630.00,630.00
             630.00,630.00 630.00,0.00 630.00,0.00
             630.00,0.00 0.00,0.00 0.00,0.00 Z" />
  <path id="Ruta importada"
        fill="#333"
        d="M 375.09,520.14
           C 392.47,554.48 427.99,580.68 482.97,580.68
             539.20,580.68 581.07,551.48 581.07,498.18
             581.07,448.74 552.67,426.75 502.37,405.18
             502.37,405.18 487.57,398.84 487.57,398.84
             462.17,387.84 451.17,380.65 451.17,362.89
             451.17,348.52 462.16,337.52 479.50,337.52
             496.50,337.52 507.45,344.69 517.60,362.89
             517.60,362.89 563.70,333.29 563.70,333.29
             544.20,298.99 517.14,285.89 479.50,285.89
             426.63,285.89 392.80,319.69 392.80,364.09
             392.80,412.29 421.18,435.09 463.90,453.29
             463.90,453.29 478.70,459.64 478.70,459.64
             505.70,471.45 521.80,478.64 521.80,498.94
             521.80,515.88 506.13,528.14 481.60,528.14
             452.40,528.14 435.89,512.91 423.20,492.19
             423.20,492.19 375.09,520.14 375.09,520.14 Z
           M 165.70,526.63
           C 179.66,556.18 207.11,580.71 254.51,580.71
             306.97,580.71 342.91,552.81 342.91,491.51
             342.91,491.51 342.91,289.41 342.91,289.41
             342.91,289.41 283.71,289.41 283.71,289.41
             283.71,289.41 283.71,490.71 283.71,490.71
             283.71,520.30 271.44,527.91 251.99,527.91
             231.65,527.91 223.19,513.96 213.89,497.46
             213.89,497.46 165.70,526.63 165.70,526.63 Z" />
</svg>
