<?xml version="1.0" encoding="UTF-8" standalone="no"?>
<!DOCTYPE svg PUBLIC "-//W3C//DTD SVG 20010904//EN"
              "http://www.w3.org/TR/2001/REC-SVG-20010904/DTD/svg10.dtd">

<svg xmlns="http://www.w3.org/2000/svg"
     width="5.68889in" height="5.68889in"
     viewBox="0 0 512 512">
  <path id="Ruta importada"
        fill="#333"
        d="M 224.00,288.00
           C 224.00,288.00 288.00,288.00 288.00,288.00
             332.20,288.00 368.00,323.80 368.00,368.00
             368.00,376.80 360.80,384.00 352.00,384.00
             352.00,384.00 160.00,384.00 160.00,384.00
             151.20,384.00 144.00,376.80 144.00,368.00
             144.00,323.80 179.80,288.00 224.00,288.00 Z
           M 320.00,192.00
           C 320.00,227.30 291.30,256.00 256.00,256.00
             220.70,256.00 192.00,227.30 192.00,192.00
             192.00,156.70 220.70,128.00 256.00,128.00
             291.30,128.00 320.00,156.70 320.00,192.00 Z" />
</svg>
