<?xml version="1.0" encoding="UTF-8" standalone="no"?>
<!DOCTYPE svg PUBLIC "-//W3C//DTD SVG 20010904//EN"
              "http://www.w3.org/TR/2001/REC-SVG-20010904/DTD/svg10.dtd">

<svg xmlns="http://www.w3.org/2000/svg"
     width="7in" height="7in"
     viewBox="0 0 630 630">
  <path id="Ruta importada #2"
        fill="#EEE"
        d="M 47.75,227.06
           C 47.75,227.06 137.21,227.06 137.21,227.06
             163.49,227.31 182.51,234.87 194.36,249.80
             206.14,264.67 210.04,285.08 206.01,310.91
             204.44,322.69 201.03,334.28 195.68,345.62
             190.58,356.96 183.39,367.23 174.32,376.30
             163.17,387.89 151.26,395.27 138.60,398.35
             125.87,401.50 112.77,403.01 99.16,403.01
             99.16,403.01 59.09,403.01 59.09,403.01
             59.09,403.01 46.43,466.46 46.43,466.46
             46.43,466.46 0.00,466.46 0.00,466.46
             0.00,466.46 47.75,227.06 47.75,227.06
             47.75,227.06 47.75,227.06 47.75,227.06M 86.81,265.11
           C 86.81,265.11 66.78,365.28 66.78,365.28
             68.10,365.53 69.43,365.66 70.81,365.66
             72.32,365.66 73.90,365.66 75.47,365.66
             96.83,365.85 114.66,363.77 128.90,359.29
             143.14,354.63 152.71,338.38 157.63,310.53
             161.60,287.16 157.63,273.68 145.59,270.15
             133.81,266.56 119.01,264.92 101.18,265.11
             98.53,265.36 95.95,265.49 93.49,265.49
             91.29,265.49 88.96,265.49 86.50,265.49
             86.50,265.49 86.81,265.11 86.81,265.11M 258.87,163.30
           C 258.87,163.30 304.98,163.30 304.98,163.30
             304.98,163.30 291.94,227.06 291.94,227.06
             291.94,227.06 333.33,227.06 333.33,227.06
             356.08,227.50 372.96,232.22 384.11,241.11
             395.45,249.99 398.79,266.94 394.13,291.88
             394.13,291.88 371.76,403.01 371.76,403.01
             371.76,403.01 325.02,403.01 325.02,403.01
             325.02,403.01 346.37,296.86 346.37,296.86
             348.58,285.71 347.95,277.83 344.36,273.17
             340.83,268.45 333.14,266.12 321.30,266.12
             321.30,266.12 284.26,265.80 284.26,265.80
             284.26,265.80 256.91,403.01 256.91,403.01
             256.91,403.01 210.80,403.01 210.80,403.01
             210.80,403.01 258.87,163.30 258.87,163.30
             258.87,163.30 258.87,163.30 258.87,163.30M 443.58,227.06
           C 443.58,227.06 533.11,227.06 533.11,227.06
             559.31,227.31 578.40,234.87 590.18,249.80
             601.97,264.67 605.87,285.08 601.84,310.91
             600.33,322.69 596.86,334.28 591.51,345.62
             586.40,356.96 579.29,367.23 570.15,376.30
             559.00,387.89 547.09,395.27 534.43,398.35
             521.70,401.50 508.60,403.01 494.99,403.01
             494.99,403.01 454.92,403.01 454.92,403.01
             454.92,403.01 442.26,466.46 442.26,466.46
             442.26,466.46 395.83,466.46 395.83,466.46
             395.83,466.46 443.58,227.06 443.58,227.06
             443.58,227.06 443.58,227.06 443.58,227.06M 482.64,265.11
           C 482.64,265.11 462.61,365.28 462.61,365.28
             463.93,365.53 465.32,365.66 466.64,365.66
             468.22,365.66 469.73,365.66 471.30,365.66
             492.66,365.85 510.49,363.77 524.73,359.29
             538.97,354.63 548.54,338.38 553.46,310.53
             557.42,287.16 553.46,273.68 541.42,270.15
             529.64,266.56 514.84,264.92 497.01,265.11
             494.36,265.36 491.78,265.49 489.32,265.49
             487.12,265.49 484.79,265.49 482.33,265.49
             482.33,265.49 482.64,265.11 482.64,265.11" />
</svg>
