<?xml version="1.0" encoding="UTF-8" standalone="no"?>
<!DOCTYPE svg PUBLIC "-//W3C//DTD SVG 20010904//EN"
              "http://www.w3.org/TR/2001/REC-SVG-20010904/DTD/svg10.dtd">

<svg xmlns="http://www.w3.org/2000/svg"
     width="7in" height="7in"
     viewBox="0 0 630 630">
  <path id="path1948"
        fill="#CCC"
        d="M 308.76,0.00
           C 283.24,0.11 258.84,2.29 237.39,6.08
             174.27,17.23 162.79,40.59 162.79,83.63
             162.79,83.63 162.79,140.50 162.79,140.50
             162.79,140.50 312.05,140.50 312.05,140.50
             312.05,140.50 312.05,159.45 312.05,159.45
             312.05,159.45 162.79,159.45 162.79,159.45
             162.79,159.45 106.74,159.45 106.74,159.45
             63.39,159.45 25.40,185.49 13.53,235.11
             -0.18,291.92 -0.79,327.38 13.53,386.70
             24.12,430.85 49.47,462.35 92.87,462.35
             92.87,462.35 144.18,462.35 144.18,462.35
             144.18,462.35 144.18,394.17 144.18,394.17
             144.18,344.94 186.80,301.51 237.39,301.51
             237.39,301.51 386.48,301.51 386.48,301.51
             427.99,301.51 461.14,267.33 461.14,225.68
             461.14,225.68 461.14,83.63 461.14,83.63
             461.14,43.21 427.04,12.82 386.48,6.08
             360.85,1.84 334.28,-0.11 308.76,0.00 Z
           M 228.03,45.72
           C 243.46,45.72 256.05,58.54 256.05,74.26
             256.05,89.93 243.46,102.58 228.03,102.58
             212.54,102.58 200.01,89.93 200.01,74.26
             200.01,58.54 212.54,45.72 228.03,45.72 Z" />
  <path id="path1950"
        fill="#EEE"
        d="M 479.75,159.45
           C 479.75,159.45 479.75,225.68 479.75,225.68
             479.75,277.09 436.18,320.30 386.48,320.30
             386.48,320.30 237.39,320.30 237.39,320.30
             196.55,320.30 162.79,355.20 162.79,396.12
             162.79,396.12 162.79,538.18 162.79,538.18
             162.79,578.60 197.94,602.35 237.39,613.94
             284.69,627.88 329.99,630.39 386.48,613.94
             424.09,603.07 461.14,581.22 461.14,538.18
             461.14,538.18 461.14,481.31 461.14,481.31
             461.14,481.31 312.05,481.31 312.05,481.31
             312.05,481.31 312.05,462.35 312.05,462.35
             312.05,462.35 461.14,462.35 461.14,462.35
             461.14,462.35 535.80,462.35 535.80,462.35
             579.14,462.35 595.35,432.08 610.40,386.70
             626.00,339.98 625.33,295.04 610.40,235.11
             599.70,191.90 579.20,159.45 535.80,159.45
             535.80,159.45 479.75,159.45 479.75,159.45 Z
           M 395.95,520.17
           C 411.44,520.17 423.98,532.82 423.98,548.55
             423.98,564.27 411.44,577.04 395.95,577.04
             380.58,577.04 367.98,564.27 367.98,548.55
             367.98,532.82 380.58,520.17 395.95,520.17 Z" />
</svg>
